HIERARCHY
ROOT Hips
{
 OFFSET 0.000000 0.000000 0.000000
 CHANNELS 6 Xposition Yposition Zposition Yrotation Xrotation Zrotation
 JOINT Chest
 {
  OFFSET 0.000000 9.588913 -0.003946
  CHANNELS 3 Yrotation Xrotation Zrotation
  JOINT Chest2
  {
   OFFSET 0.000000 9.541882 0.008053
   CHANNELS 3 Yrotation Xrotation Zrotation
   JOINT Chest3
   {
    OFFSET 0.000000 9.501360 0.000000
    CHANNELS 3 Yrotation Xrotation Zrotation
    JOINT Chest4
    {
     OFFSET 0.000000 9.491660 0.000000
     CHANNELS 3 Yrotation Xrotation Zrotation
     JOINT Neck
     {
      OFFSET 0.000000 14.331917 0.000000
      CHANNELS 3 Yrotation Xrotation Zrotation
      JOINT Head
      {
       OFFSET 0.000000 8.884799 0.017034
       CHANNELS 3 Yrotation Xrotation Zrotation
       End Site
       {
        OFFSET 0.000000 16.896195 0.008993
       }
      }
     }
     JOINT RightCollar
     {
      OFFSET -2.923010 9.499495 0.000000
      CHANNELS 3 Yrotation Xrotation Zrotation
      JOINT RightShoulder
      {
       OFFSET -13.795216 0.000000 0.000000
       CHANNELS 3 Yrotation Xrotation Zrotation
       JOINT RightElbow
       {
        OFFSET -30.272209 0.000000 0.000000
        CHANNELS 3 Yrotation Xrotation Zrotation
        JOINT RightWrist
        {
         OFFSET -24.478199 0.000000 0.000000
         CHANNELS 3 Yrotation Xrotation Zrotation
         End Site
         {
          OFFSET -18.090752 0.000000 0.000000
         }
        }
       }
      }
     }
     JOINT LeftCollar
     {
      OFFSET 2.923010 9.499495 0.000000
      CHANNELS 3 Yrotation Xrotation Zrotation
      JOINT LeftShoulder
      {
       OFFSET 13.795216 0.000000 0.000000
       CHANNELS 3 Yrotation Xrotation Zrotation
       JOINT LeftElbow
       {
        OFFSET 30.272209 0.000000 0.000000
        CHANNELS 3 Yrotation Xrotation Zrotation
        JOINT LeftWrist
        {
         OFFSET 24.478199 0.000000 0.000000
         CHANNELS 3 Yrotation Xrotation Zrotation
         End Site
         {
          OFFSET 18.090752 0.000000 0.000000
         }
        }
       }
      }
     }
    }
   }
  }
 }
 JOINT RightHip
 {
  OFFSET -7.826875 0.019532 0.001973
  CHANNELS 3 Yrotation Xrotation Zrotation
  JOINT RightKnee
  {
   OFFSET 0.000000 -40.546152 -0.001885
   CHANNELS 3 Yrotation Xrotation Zrotation
   JOINT RightAnkle
   {
    OFFSET 0.000000 -39.417092 -0.003189
    CHANNELS 3 Yrotation Xrotation Zrotation
    JOINT RightToe
    {
     OFFSET 0.000000 -7.579396 17.243563
     CHANNELS 3 Yrotation Xrotation Zrotation
     End Site
     {
      OFFSET 0.000000 -1.500329 6.694466
     }
    }
   }
  }
 }
 JOINT LeftHip
 {
  OFFSET 7.826875 0.019532 0.001973
  CHANNELS 3 Yrotation Xrotation Zrotation
  JOINT LeftKnee
  {
   OFFSET 0.000000 -40.546152 -0.001885
   CHANNELS 3 Yrotation Xrotation Zrotation
   JOINT LeftAnkle
   {
    OFFSET 0.000000 -39.417092 -0.003189
    CHANNELS 3 Yrotation Xrotation Zrotation
    JOINT LeftToe
    {
     OFFSET 0.000000 -7.579396 17.243563
     CHANNELS 3 Yrotation Xrotation Zrotation
     End Site
     {
      OFFSET 0.000000 -1.500329 6.694466
     }
    }
   }
  }
 }
}
MOTION
Frames: 7
Frame Time: 0.008333
-6.857284 88.743868 11.959812 -48.241063 -2.654617 -1.482989 0.197268 -4.798597 0.754657 0.116393 -2.740215 0.426717 0.142338 -3.425398 0.532678 0.116393 -2.740215 0.426717 -12.080554 23.654485 -2.286702 -13.035493 0.547406 0.220939 7.170785 -8.611867 3.551877 -4.241501 -33.951719 85.895287 69.708041 -61.406537 -0.909522 18.499163 -20.826823 -9.018816 3.372412 -0.881235 1.681727 2.085541 3.078799 -91.193654 1.566510 1.184923 1.652811 0.346484 -3.714209 -2.735194 0.263213 9.974948 3.453996 -6.411326 -1.710629 -0.397291 -0.458658 -4.975112 -0.480592 -0.000945 -0.008509 -0.012321 5.028908 9.618060 2.300744 4.382470 1.467903 1.338552 4.844042 -8.257887 -2.969571 0.003205 -0.008519 -0.003107
-6.866867 88.742787 11.970797 -48.253174 -2.653510 -1.482636 0.196122 -4.802357 0.758381 0.115565 -2.742138 0.427516 0.141295 -3.427801 0.533682 0.115565 -2.742138 0.427516 -12.087859 23.654232 -2.287497 -13.044061 0.548023 0.221653 7.158484 -8.592744 3.547304 -4.232862 -33.947506 85.898794 69.743567 -61.411205 -0.924500 18.507807 -20.832374 -9.028437 3.371778 -0.872133 1.681084 2.099943 3.074765 -91.197556 1.547316 1.150863 1.647726 0.338976 -3.725340 -2.723652 0.267798 9.987850 3.449900 -6.412558 -1.721690 -0.392823 -0.458351 -4.973588 -0.474390 -0.001009 -0.007641 -0.013937 5.021893 9.628037 2.293761 4.392193 1.471160 1.346878 4.846529 -8.269779 -2.974166 0.003811 -0.009785 -0.002904
-6.876485 88.741878 11.980790 -48.260554 -2.650763 -1.483952 0.193329 -4.807359 0.762266 0.113838 -2.744842 0.428577 0.139125 -3.431180 0.535021 0.113838 -2.744842 0.428577 -12.095646 23.655550 -2.289794 -13.052882 0.550582 0.220766 7.147905 -8.570570 3.541392 -4.220865 -33.945581 85.903231 69.783979 -61.425496 -0.949614 18.513826 -20.841385 -9.036061 3.368401 -0.861326 1.680618 2.114273 3.073149 -91.199993 1.527726 1.123197 1.643616 0.330133 -3.737409 -2.709808 0.268302 9.999627 3.448164 -6.412912 -1.733752 -0.389296 -0.457997 -4.970884 -0.468543 -0.000773 -0.007295 -0.014920 5.015880 9.634611 2.289611 4.400112 1.475692 1.354197 4.847815 -8.282438 -2.978356 0.004407 -0.010361 -0.002784
-6.885617 88.741091 11.989964 -48.266783 -2.644317 -1.484995 0.190465 -4.813871 0.766734 0.112199 -2.748594 0.430213 0.137058 -3.435868 0.537078 0.112199 -2.748594 0.430213 -12.104598 23.657063 -2.295187 -13.062356 0.553443 0.216661 7.138313 -8.546432 3.533516 -4.208374 -33.946290 85.906209 69.816459 -61.446698 -0.972264 18.520827 -20.850245 -9.045655 3.363588 -0.847549 1.676380 2.121151 3.069483 -91.201977 1.512381 1.097309 1.641045 0.314184 -3.746357 -2.694065 0.265975 10.007749 3.446440 -6.414319 -1.746689 -0.386015 -0.455399 -4.967594 -0.463936 -0.000221 -0.006708 -0.014892 5.014644 9.636955 2.287062 4.403325 1.479549 1.358202 4.849992 -8.294526 -2.980387 0.004407 -0.010888 -0.002911
-6.894118 88.740382 11.998678 -48.274948 -2.634797 -1.484938 0.188892 -4.820675 0.771214 0.111349 -2.752786 0.432094 0.135977 -3.441108 0.539437 0.111349 -2.752786 0.432094 -12.113322 23.657024 -2.302453 -13.071065 0.554326 0.210429 7.126580 -8.523619 3.524948 -4.193165 -33.947538 85.908309 69.847206 -61.467524 -0.996748 18.527848 -20.853478 -9.059399 3.357599 -0.833077 1.670029 2.118045 3.061319 -91.205854 1.502105 1.071309 1.640957 0.295375 -3.751252 -2.680003 0.264171 10.012218 3.443120 -6.417389 -1.759628 -0.382002 -0.450096 -4.964292 -0.459667 -0.000167 -0.005666 -0.014879 5.020181 9.637406 2.284288 4.401213 1.479959 1.360222 4.854810 -8.304365 -2.980556 0.004357 -0.011832 -0.003331
-6.902388 88.739720 12.007148 -48.286740 -2.625070 -1.485914 0.188620 -4.826768 0.775524 0.111452 -2.756760 0.434239 0.136085 -3.446075 0.542117 0.111452 -2.756760 0.434239 -12.120553 23.655656 -2.310567 -13.077744 0.553367 0.202938 7.115735 -8.502786 3.517289 -4.175990 -33.946082 85.908906 69.888981 -61.484911 -1.031254 18.530548 -20.852140 -9.072899 3.348490 -0.819798 1.663869 2.111176 3.052276 -91.209069 1.492898 1.052027 1.639680 0.281631 -3.755764 -2.670746 0.266491 10.014327 3.440331 -6.421983 -1.769435 -0.377263 -0.442938 -4.961834 -0.454969 -0.000641 -0.004875 -0.015449 5.030805 9.639830 2.282766 4.394371 1.475714 1.362440 4.862923 -8.311614 -2.981302 0.004441 -0.013103 -0.003280
-6.910268 88.739038 12.015538 -48.304240 -2.615667 -1.487784 0.190093 -4.833402 0.779997 0.112814 -2.760879 0.437044 0.137762 -3.451226 0.545613 0.112814 -2.760879 0.437044 -12.127097 23.654863 -2.320586 -13.083151 0.552971 0.193153 7.110689 -8.479415 3.509223 -4.162470 -33.941701 85.906362 69.937241 -61.500143 -1.066971 18.526974 -20.850697 -9.079769 3.337761 -0.805819 1.656770 2.101633 3.044823 -91.211062 1.484047 1.038515 1.637345 0.273189 -3.759648 -2.669418 0.275102 10.013991 3.438393 -6.426175 -1.775444 -0.373158 -0.435339 -4.961006 -0.449424 -0.001382 -0.003808 -0.016183 5.045199 9.644128 2.282843 4.384262 1.468881 1.364440 4.872832 -8.317333 -2.984232 0.004030 -0.014759 -0.001692
